<svg width="132" height="101" viewBox="0 0 132 101" fill="none" xmlns="http://www.w3.org/2000/svg">
<path d="M44.5828 45.2303C-33.3856 22.6625 78.9455 78.3432 78.9455 78.3432" stroke="black"/>
<path d="M43.8884 44.8948C122.409 62.9308 7.00005 14.3505 7.00005 14.3505" stroke="black"/>
<path d="M73.9297 93.8984C73.7539 94.0742 73.5625 94.2305 73.3555 94.3672C73.1484 94.5039 72.9375 94.625 72.7227 94.7305C72.5078 94.832 72.291 94.9199 72.0723 94.9941C71.8574 95.0645 71.6504 95.125 71.4512 95.1758C70.9824 95.293 70.5117 95.3672 70.0391 95.3984C69.3711 95.3906 68.7676 95.2891 68.2285 95.0938C67.6895 94.9023 67.2305 94.6309 66.8516 94.2793C66.4727 93.9238 66.1816 93.4941 65.9785 92.9902C65.7754 92.4824 65.6738 91.9121 65.6738 91.2793C65.6738 90.7598 65.7676 90.2773 65.9551 89.832C66.1465 89.3867 66.4023 88.9824 66.7227 88.6191C67.043 88.252 67.4141 87.9297 67.8359 87.6523C68.2578 87.3711 68.7012 87.1348 69.166 86.9434C69.6309 86.752 70.1016 86.6074 70.5781 86.5098C71.0586 86.4082 71.5156 86.3574 71.9492 86.3574C72.0781 86.3574 72.2168 86.3613 72.3652 86.3691C72.5176 86.373 72.666 86.3828 72.8105 86.3984C72.959 86.4141 73.0977 86.4375 73.2266 86.4688C73.3594 86.4961 73.4688 86.5352 73.5547 86.5859C73.6445 86.6367 73.707 86.6992 73.7422 86.7734C73.7773 86.8438 73.7715 86.9297 73.7246 87.0312C73.666 87.0664 73.5703 87.1289 73.4375 87.2188C73.3203 87.2969 73.1543 87.4043 72.9395 87.541C72.7285 87.6777 72.4453 87.8594 72.0898 88.0859C72.1914 88.0195 72.2656 87.957 72.3125 87.8984C72.3594 87.8398 72.3828 87.7832 72.3828 87.7285C72.3828 87.6426 72.3438 87.5664 72.2656 87.5C72.1914 87.4336 72.0957 87.377 71.9785 87.3301C71.8613 87.2832 71.7305 87.2461 71.5859 87.2188C71.4414 87.1875 71.3027 87.1641 71.1699 87.1484C71.0371 87.1289 70.916 87.1172 70.8066 87.1133C70.6973 87.1055 70.6172 87.1016 70.5664 87.1016C69.4258 87.1016 68.5645 87.3926 67.9824 87.9746C67.4004 88.5566 67.1094 89.418 67.1094 90.5586C67.1094 91.1602 67.207 91.6973 67.4023 92.1699C67.5977 92.6426 67.8672 93.0488 68.2109 93.3887C68.5547 93.7246 68.9629 93.9922 69.4355 94.1914C69.9082 94.3906 70.4219 94.5156 70.9766 94.5664C71.2852 94.5859 71.6055 94.5742 71.9375 94.5312C72.2227 94.4961 72.5391 94.4316 72.8867 94.3379C73.2383 94.2441 73.5859 94.0977 73.9297 93.8984ZM79.1094 93.9219C78.7188 94.1914 78.3906 94.4141 78.125 94.5898C77.8594 94.7617 77.627 94.8984 77.4277 95C77.2324 95.1055 77.0547 95.1777 76.8945 95.2168C76.7383 95.2559 76.5723 95.2754 76.3965 95.2754C76.2441 95.2754 76.0957 95.2383 75.9512 95.1641C75.8105 95.0938 75.6836 94.9629 75.5703 94.7715C75.4609 94.5762 75.373 94.3105 75.3066 93.9746C75.2402 93.6348 75.207 93.1973 75.207 92.6621C75.207 92.1348 75.2129 91.582 75.2246 91.0039C75.2363 90.4258 75.248 89.8457 75.2598 89.2637C75.2754 88.6816 75.2891 88.1113 75.3008 87.5527C75.3125 86.9941 75.3184 86.4727 75.3184 85.9883C75.3184 85.5117 75.2461 85.1406 75.1016 84.875C74.957 84.6094 74.7363 84.4766 74.4395 84.4766C74.3496 84.4766 74.25 84.4902 74.1406 84.5176C74.0312 84.541 73.916 84.584 73.7949 84.6465C73.9473 84.5371 74.1074 84.4258 74.2754 84.3125C74.4434 84.1953 74.6133 84.0898 74.7852 83.9961C74.9609 83.9023 75.1367 83.8262 75.3125 83.7676C75.4922 83.7051 75.6699 83.6738 75.8457 83.6738C76.0684 83.6738 76.2422 83.7305 76.3672 83.8438C76.4961 83.9531 76.5898 84.0898 76.6484 84.2539C76.7109 84.418 76.748 84.5977 76.7598 84.793C76.7754 84.9844 76.7832 85.1621 76.7832 85.3262C76.7793 85.5762 76.7734 85.877 76.7656 86.2285C76.7617 86.5801 76.7559 86.959 76.748 87.3652C76.7402 87.7676 76.7324 88.1855 76.7246 88.6191C76.7168 89.0527 76.709 89.4785 76.7012 89.8965C76.6934 90.3105 76.6855 90.7051 76.6777 91.0801C76.6738 91.4551 76.668 91.7852 76.6602 92.0703C76.6523 92.4531 76.6797 92.7852 76.7422 93.0664C76.8047 93.3438 76.8945 93.5723 77.0117 93.752C77.1289 93.9316 77.2695 94.0645 77.4336 94.1504C77.5977 94.2363 77.7793 94.2793 77.9785 94.2793C78.3379 94.2793 78.7148 94.1602 79.1094 93.9219ZM81.418 84.0547C81.418 84.168 81.4199 84.2773 81.4238 84.3828C81.4277 84.4844 81.4297 84.584 81.4297 84.6816C81.4297 84.9121 81.4102 85.1094 81.3711 85.2734C81.332 85.4375 81.2402 85.5684 81.0957 85.666C81.0098 85.7285 80.9023 85.8008 80.7734 85.8828C80.5586 86.0234 80.2129 86.2383 79.7363 86.5273C79.7832 86.4023 79.8164 86.252 79.8359 86.0762C79.8594 85.8965 79.875 85.7266 79.8828 85.5664C79.8906 85.3789 79.8906 85.1836 79.8828 84.9805C80.1289 84.8516 80.3457 84.7324 80.5332 84.623C80.7207 84.5098 80.8809 84.4102 81.0137 84.3242C81.1699 84.2266 81.3047 84.1367 81.418 84.0547ZM83.4805 94.0391C83.0352 94.332 82.6562 94.5625 82.3438 94.7305C82.0352 94.8984 81.7695 95.0234 81.5469 95.1055C81.3242 95.1875 81.1367 95.2344 80.9844 95.2461C80.832 95.2578 80.6934 95.252 80.5684 95.2285C80.4551 95.209 80.3438 95.1797 80.2344 95.1406C80.125 95.1016 80.0254 95.0312 79.9355 94.9297C79.8496 94.8242 79.7793 94.6738 79.7246 94.4785C79.6699 94.2832 79.6426 94.0176 79.6426 93.6816C79.6426 93.4004 79.6504 93.123 79.666 92.8496C79.6816 92.5723 79.6973 92.2988 79.7129 92.0293C79.7324 91.7559 79.7461 91.4863 79.7539 91.2207C79.7656 90.9512 79.7676 90.6836 79.7598 90.418C79.752 90.1602 79.7051 89.9727 79.6191 89.8555C79.5332 89.7344 79.4043 89.6738 79.2324 89.6738C79.166 89.6738 79.0938 89.6816 79.0156 89.6973C78.9375 89.7129 78.8535 89.7363 78.7637 89.7676C78.9043 89.6699 79.0488 89.5723 79.1973 89.4746C79.3457 89.373 79.4961 89.2832 79.6484 89.2051C79.8008 89.127 79.9531 89.0645 80.1055 89.0176C80.2617 88.9668 80.416 88.9414 80.5684 88.9414C80.7324 88.9414 80.875 88.9785 80.9961 89.0527C81.1211 89.127 81.2012 89.25 81.2363 89.4219C81.248 89.4883 81.2559 89.5859 81.2598 89.7148C81.2676 89.8438 81.2715 89.9941 81.2715 90.166C81.2715 90.4199 81.2656 90.7012 81.2539 91.0098C81.2461 91.3184 81.2363 91.623 81.2246 91.9238C81.2129 92.2207 81.2012 92.4961 81.1895 92.75C81.1777 93 81.1699 93.1934 81.166 93.3301C81.1621 93.459 81.1855 93.5879 81.2363 93.7168C81.2871 93.8457 81.3613 93.9629 81.459 94.0684C81.5605 94.1699 81.6836 94.2539 81.8281 94.3203C81.9766 94.3828 82.1445 94.4141 82.332 94.4141C82.4961 94.4141 82.6738 94.3848 82.8652 94.3262C83.0566 94.2676 83.2617 94.1719 83.4805 94.0391ZM89.5801 93.7051C89.416 93.8496 89.2129 94.0039 88.9707 94.168C88.7324 94.332 88.4668 94.4863 88.1738 94.6309C87.8848 94.7715 87.5762 94.8906 87.248 94.9883C86.9199 95.0859 86.5859 95.1387 86.2461 95.1465C86.0508 95.1543 85.8438 95.1367 85.625 95.0938C85.4102 95.0547 85.1973 94.9902 84.9863 94.9004C84.7793 94.8105 84.5801 94.6973 84.3887 94.5605C84.2012 94.4199 84.0352 94.252 83.8906 94.0566C83.7461 93.8574 83.6309 93.6309 83.5449 93.377C83.4629 93.123 83.4219 92.8398 83.4219 92.5273C83.4219 92.1406 83.4863 91.7812 83.6152 91.4492C83.7441 91.1133 83.918 90.8086 84.1367 90.5352C84.3555 90.2578 84.6133 90.0137 84.9102 89.8027C85.207 89.5879 85.5234 89.4082 85.8594 89.2637C86.1953 89.1191 86.543 89.0098 86.9023 88.9355C87.2617 88.8574 87.6133 88.8184 87.957 88.8184C88 88.8184 88.0664 88.8203 88.1562 88.8242C88.2461 88.8242 88.3457 88.8281 88.4551 88.8359C88.5645 88.8438 88.6758 88.8574 88.7891 88.877C88.9062 88.8926 89.0117 88.9141 89.1055 88.9414C89.2031 88.9688 89.2812 89.0039 89.3398 89.0469C89.4023 89.0859 89.4336 89.1348 89.4336 89.1934C89.4336 89.2598 89.4004 89.3242 89.334 89.3867C89.2676 89.4492 89.1895 89.5078 89.0996 89.5625C89.0293 89.6094 88.9375 89.666 88.8242 89.7324C88.7266 89.7871 88.6016 89.8574 88.4492 89.9434C88.3008 90.0293 88.1172 90.1309 87.8984 90.248C87.9688 90.123 87.9805 90.0176 87.9336 89.9316C87.8867 89.8457 87.8008 89.7773 87.6758 89.7266C87.5547 89.6719 87.4062 89.6328 87.2305 89.6094C87.0586 89.5859 86.8809 89.5742 86.6973 89.5742C86.5762 89.5742 86.457 89.5801 86.3398 89.5918C86.2266 89.5996 86.1191 89.6113 86.0176 89.627C85.9199 89.6387 85.832 89.6543 85.7539 89.6738C85.6797 89.6934 85.6191 89.7129 85.5723 89.7324C85.498 89.7637 85.4219 89.8438 85.3438 89.9727C85.2656 90.0977 85.1934 90.252 85.127 90.4355C85.0645 90.6191 85.0117 90.8242 84.9688 91.0508C84.9297 91.2773 84.9102 91.5059 84.9102 91.7363C84.9102 92.0879 84.9766 92.416 85.1094 92.7207C85.2422 93.0254 85.4219 93.291 85.6484 93.5176C85.8789 93.7441 86.1465 93.9219 86.4512 94.0508C86.7559 94.1797 87.0781 94.2441 87.418 94.2441C87.7852 94.2441 88.1523 94.1914 88.5195 94.0859C88.8867 93.9766 89.2402 93.8496 89.5801 93.7051ZM92.2461 94.3496L90.8398 95.3574C90.8555 94.3418 90.8711 93.4297 90.8867 92.6211C90.9023 91.8125 90.9141 91.0938 90.9219 90.4648C90.9336 89.832 90.9434 89.2832 90.9512 88.8184C90.959 88.3535 90.9648 87.9551 90.9688 87.623C90.9805 86.8457 90.9863 86.3008 90.9863 85.9883C90.998 85.5117 90.9297 85.1406 90.7812 84.875C90.6367 84.6094 90.4121 84.4766 90.1074 84.4766C90.0098 84.4766 89.9082 84.4902 89.8027 84.5176C89.6934 84.541 89.5801 84.584 89.4629 84.6465C89.6152 84.5371 89.7754 84.4258 89.9434 84.3125C90.1113 84.1953 90.2812 84.0898 90.4531 83.9961C90.6289 83.9023 90.8047 83.8262 90.9805 83.7676C91.1602 83.7051 91.3379 83.6738 91.5137 83.6738C91.6699 83.6738 91.8027 83.7031 91.9121 83.7617C92.0215 83.8203 92.1113 83.8984 92.1816 83.9961C92.2559 84.0898 92.3125 84.1992 92.3516 84.3242C92.3906 84.4453 92.418 84.5723 92.4336 84.7051C92.4531 84.8379 92.4648 84.9707 92.4688 85.1035C92.4727 85.2363 92.4746 85.3594 92.4746 85.4727L92.3398 90.4883C92.5508 90.25 92.7891 90.0293 93.0547 89.8262C93.3242 89.6191 93.6035 89.4434 93.8926 89.2988C94.1816 89.1543 94.4707 89.0469 94.7598 88.9766C95.0527 88.9062 95.3262 88.8867 95.5801 88.918C95.7324 88.9375 95.875 88.9824 96.0078 89.0527C96.1406 89.1191 96.2559 89.209 96.3535 89.3223C96.4512 89.4316 96.5273 89.5605 96.582 89.709C96.6406 89.8535 96.6699 90.0098 96.6699 90.1777C96.6699 90.4551 96.6055 90.7031 96.4766 90.9219C96.3477 91.1406 96.1816 91.332 95.9785 91.4961C95.7793 91.6602 95.5566 91.7969 95.3105 91.9062C95.0684 92.0117 94.834 92.0918 94.6074 92.1465C94.7129 92.2598 94.8359 92.3926 94.9766 92.5449C95.1211 92.6973 95.2754 92.8555 95.4395 93.0195C95.6035 93.1797 95.7754 93.3398 95.9551 93.5C96.1348 93.6562 96.3145 93.7969 96.4941 93.9219C96.6777 94.0469 96.8574 94.1484 97.0332 94.2266C97.209 94.3008 97.377 94.3379 97.5371 94.3379C97.8496 94.3379 98.166 94.2383 98.4863 94.0391C98.2051 94.2383 97.957 94.418 97.7422 94.5781C97.5312 94.7344 97.332 94.8652 97.1445 94.9707C96.9609 95.0762 96.7773 95.1543 96.5938 95.2051C96.4102 95.2559 96.2051 95.2715 95.9785 95.252C95.748 95.2363 95.5234 95.1602 95.3047 95.0234C95.0898 94.8906 94.8828 94.7324 94.6836 94.5488C94.4844 94.3652 94.293 94.1699 94.1094 93.9629C93.9258 93.7559 93.752 93.5703 93.5879 93.4062C93.5176 93.3242 93.4395 93.248 93.3535 93.1777C93.2793 93.1191 93.1895 93.0605 93.084 93.002C92.9824 92.9434 92.8672 92.9023 92.7383 92.8789C92.875 92.7656 93.0117 92.666 93.1484 92.5801C93.2891 92.4902 93.416 92.4121 93.5293 92.3457C93.6621 92.2715 93.793 92.2051 93.9219 92.1465C94.0547 92.0879 94.1934 92.0195 94.3379 91.9414C94.4863 91.8633 94.6211 91.7734 94.7422 91.6719C94.8672 91.5664 94.9688 91.4473 95.0469 91.3145C95.1289 91.1777 95.1699 91.0215 95.1699 90.8457C95.1699 90.7012 95.1445 90.5605 95.0938 90.4238C95.0469 90.2832 94.9785 90.1602 94.8887 90.0547C94.7988 89.9453 94.6914 89.8594 94.5664 89.7969C94.4453 89.7305 94.3105 89.6973 94.1621 89.6973C94.0137 89.6973 93.8711 89.7207 93.7344 89.7676C93.5977 89.8145 93.4844 89.8633 93.3945 89.9141C93.3164 89.957 93.2148 90.0801 93.0898 90.2832C92.9688 90.4863 92.8477 90.7715 92.7266 91.1387C92.6055 91.5059 92.498 91.957 92.4043 92.4922C92.3145 93.0273 92.2617 93.6465 92.2461 94.3496ZM98.4863 94.0391L98.5449 93.9922L98.4863 94.0391ZM103.59 94.3496L102.184 95.3574C102.199 94.3418 102.215 93.4297 102.23 92.6211C102.246 91.8125 102.258 91.0938 102.266 90.4648C102.277 89.832 102.287 89.2832 102.295 88.8184C102.303 88.3535 102.309 87.9551 102.312 87.623C102.324 86.8457 102.33 86.3008 102.33 85.9883C102.342 85.5117 102.273 85.1406 102.125 84.875C101.98 84.6094 101.756 84.4766 101.451 84.4766C101.354 84.4766 101.252 84.4902 101.146 84.5176C101.041 84.541 100.928 84.584 100.807 84.6465C100.959 84.5371 101.119 84.4258 101.287 84.3125C101.455 84.1953 101.625 84.0898 101.797 83.9961C101.973 83.9023 102.148 83.8262 102.324 83.7676C102.504 83.7051 102.682 83.6738 102.857 83.6738C103.014 83.6738 103.146 83.7031 103.256 83.7617C103.365 83.8203 103.455 83.8984 103.525 83.9961C103.6 84.0898 103.656 84.1992 103.695 84.3242C103.734 84.4453 103.762 84.5723 103.777 84.7051C103.797 84.8379 103.809 84.9707 103.812 85.1035C103.816 85.2363 103.818 85.3594 103.818 85.4727C103.818 85.5312 103.816 85.6387 103.812 85.7949C103.812 85.9473 103.811 86.1387 103.807 86.3691C103.803 86.5996 103.797 86.8633 103.789 87.1602C103.785 87.457 103.779 87.7754 103.771 88.1152C103.764 88.4551 103.756 88.8125 103.748 89.1875C103.74 89.5586 103.73 89.9355 103.719 90.3184C103.91 90.0957 104.133 89.8887 104.387 89.6973C104.641 89.502 104.906 89.3359 105.184 89.1992C105.461 89.0586 105.74 88.9551 106.021 88.8887C106.307 88.8184 106.576 88.7988 106.83 88.8301C107.002 88.8535 107.182 88.9023 107.369 88.9766C107.561 89.0508 107.734 89.1641 107.891 89.3164C108.051 89.4688 108.18 89.6699 108.277 89.9199C108.375 90.166 108.42 90.4746 108.412 90.8457C108.4 91.2832 108.381 91.6855 108.354 92.0527C108.33 92.416 108.318 92.7383 108.318 93.0195C108.318 93.1875 108.332 93.3477 108.359 93.5C108.387 93.6484 108.434 93.7793 108.5 93.8926C108.566 94.002 108.658 94.0898 108.775 94.1562C108.893 94.2227 109.039 94.2559 109.215 94.2559C109.375 94.2559 109.541 94.2266 109.713 94.168C109.885 94.1055 110.059 94.0117 110.234 93.8867C109.949 94.1406 109.688 94.3535 109.449 94.5254C109.215 94.6973 108.996 94.8359 108.793 94.9414C108.594 95.0469 108.404 95.1211 108.225 95.1641C108.049 95.2109 107.879 95.2324 107.715 95.2285C107.551 95.2246 107.41 95.1914 107.293 95.1289C107.18 95.0703 107.088 94.9785 107.018 94.8535C106.947 94.7246 106.898 94.5605 106.871 94.3613C106.844 94.1582 106.834 93.9102 106.842 93.6172C106.854 93.3594 106.867 93.0762 106.883 92.7676C106.902 92.4551 106.912 92.1465 106.912 91.8418C106.912 91.4941 106.889 91.1953 106.842 90.9453C106.799 90.6953 106.715 90.4902 106.59 90.3301C106.469 90.166 106.299 90.0449 106.08 89.9668C105.865 89.8887 105.586 89.8496 105.242 89.8496C105.066 89.8496 104.904 89.8652 104.756 89.8965C104.607 89.9277 104.49 89.9727 104.404 90.0312C104.334 90.082 104.258 90.1992 104.176 90.3828C104.094 90.5625 104.014 90.8262 103.936 91.1738C103.857 91.5176 103.787 91.9512 103.725 92.4746C103.662 92.9941 103.617 93.6191 103.59 94.3496ZM118.115 89.4102C117.666 89.6289 117.248 89.8242 116.861 89.9961C116.479 90.1641 116.141 90.3066 115.848 90.4238C115.508 90.5605 115.195 90.6816 114.91 90.7871C114.734 90.8613 114.539 90.9375 114.324 91.0156C114.113 91.0898 113.893 91.1641 113.662 91.2383C113.432 91.3086 113.195 91.3809 112.953 91.4551C112.715 91.5254 112.479 91.5957 112.244 91.666V91.7832C112.244 92.1855 112.307 92.5469 112.432 92.8672C112.561 93.1875 112.738 93.4609 112.965 93.6875C113.191 93.9102 113.463 94.082 113.779 94.2031C114.096 94.3203 114.445 94.3789 114.828 94.3789C115.027 94.3789 115.225 94.3633 115.42 94.332C115.619 94.3008 115.807 94.2598 115.982 94.209C116.162 94.1543 116.33 94.0898 116.486 94.0156C116.643 93.9414 116.781 93.8613 116.902 93.7754C116.605 94.041 116.299 94.2637 115.982 94.4434C115.67 94.623 115.355 94.7695 115.039 94.8828C114.727 94.9922 114.416 95.0723 114.107 95.123C113.803 95.1738 113.51 95.2012 113.229 95.2051C112.943 95.2129 112.662 95.168 112.385 95.0703C112.111 94.9766 111.861 94.832 111.635 94.6367C111.408 94.4414 111.217 94.1992 111.061 93.9102C110.904 93.6172 110.803 93.2773 110.756 92.8906C110.736 92.7539 110.727 92.623 110.727 92.498C110.73 92.3691 110.744 92.2422 110.768 92.1172C110.631 92.168 110.506 92.2148 110.393 92.2578C110.283 92.3008 110.193 92.3438 110.123 92.3867C110.236 92.3086 110.35 92.2363 110.463 92.1699C110.576 92.0996 110.688 92.0352 110.797 91.9766C110.863 91.6719 110.977 91.3809 111.137 91.1035C111.301 90.8262 111.496 90.5684 111.723 90.3301C111.953 90.0918 112.209 89.877 112.49 89.6855C112.771 89.4902 113.062 89.3242 113.363 89.1875C113.668 89.0508 113.977 88.9453 114.289 88.8711C114.602 88.7969 114.904 88.7598 115.197 88.7598C115.393 88.7598 115.557 88.7891 115.689 88.8477C115.826 88.9062 115.918 89.0098 115.965 89.1582C115.988 89.3145 115.932 89.4824 115.795 89.6621C115.736 89.7402 115.656 89.8242 115.555 89.9141C115.457 90 115.328 90.0918 115.168 90.1895C115.012 90.2871 114.822 90.3887 114.6 90.4941C114.381 90.5996 114.121 90.7051 113.82 90.8105L118.115 89.4102ZM113.469 90.834C113.637 90.7598 113.787 90.6797 113.92 90.5938C114.057 90.5078 114.162 90.418 114.236 90.3242C114.314 90.2305 114.355 90.1328 114.359 90.0312C114.363 89.9297 114.322 89.8223 114.236 89.709C114.178 89.623 114.096 89.5645 113.99 89.5332C113.889 89.498 113.783 89.4805 113.674 89.4805C113.572 89.4805 113.475 89.4922 113.381 89.5156C113.287 89.5352 113.205 89.5625 113.135 89.5977C113.088 89.625 113.023 89.6855 112.941 89.7793C112.859 89.8691 112.775 89.9883 112.689 90.1367C112.604 90.2812 112.521 90.4512 112.443 90.6465C112.369 90.8379 112.314 91.0488 112.279 91.2793C112.525 91.1895 112.748 91.1094 112.947 91.0391C113.146 90.9688 113.32 90.9004 113.469 90.834ZM119.926 90.2598C120.109 90.084 120.309 89.9082 120.523 89.7324C120.742 89.5566 120.963 89.3984 121.186 89.2578C121.412 89.1133 121.639 88.9961 121.865 88.9062C122.092 88.8164 122.305 88.7715 122.504 88.7715C122.641 88.7715 122.773 88.7871 122.902 88.8184C123.035 88.8457 123.164 88.8789 123.289 88.918C123.418 88.9531 123.545 88.9863 123.67 89.0176C123.795 89.0449 123.922 89.0586 124.051 89.0586C124.129 89.0586 124.211 89.0527 124.297 89.041C124.383 89.0293 124.48 89.0078 124.59 88.9766C124.344 89.1641 124.129 89.3262 123.945 89.4629C123.762 89.5996 123.59 89.7129 123.43 89.8027C123.27 89.8887 123.109 89.9531 122.949 89.9961C122.793 90.0352 122.617 90.0508 122.422 90.043C122.23 90.0391 122.049 90.0195 121.877 89.9844C121.709 89.9492 121.555 89.9141 121.414 89.8789C121.277 89.8398 121.156 89.8125 121.051 89.7969C120.949 89.7773 120.869 89.7832 120.811 89.8145C120.67 89.8848 120.547 90.0137 120.441 90.2012C120.336 90.3887 120.246 90.6113 120.172 90.8691C120.102 91.127 120.043 91.4062 119.996 91.707C119.953 92.0078 119.92 92.3086 119.896 92.6094C119.877 92.9102 119.867 93.1973 119.867 93.4707C119.867 93.7402 119.875 93.9746 119.891 94.1738C119.598 94.3613 119.355 94.5234 119.164 94.6602C118.973 94.7969 118.82 94.9102 118.707 95C118.574 95.1055 118.473 95.1973 118.402 95.2754C118.406 95.041 118.412 94.7578 118.42 94.4258C118.428 94.0898 118.434 93.7383 118.438 93.3711C118.445 93.0039 118.451 92.6406 118.455 92.2812C118.459 91.918 118.461 91.5918 118.461 91.3027C118.461 91.1191 118.455 90.9336 118.443 90.7461C118.436 90.5547 118.404 90.3809 118.35 90.2246C118.295 90.0684 118.209 89.9414 118.092 89.8438C117.979 89.7461 117.816 89.6973 117.605 89.6973C117.523 89.6973 117.438 89.707 117.348 89.7266C117.262 89.7422 117.176 89.7715 117.09 89.8145C117.254 89.7051 117.418 89.5938 117.582 89.4805C117.746 89.3672 117.91 89.2656 118.074 89.1758C118.242 89.082 118.408 89.0078 118.572 88.9531C118.74 88.8945 118.91 88.8652 119.082 88.8652C119.289 88.8652 119.449 88.9102 119.562 89C119.68 89.0898 119.764 89.2031 119.814 89.3398C119.869 89.4766 119.9 89.627 119.908 89.791C119.92 89.9551 119.926 90.1113 119.926 90.2598ZM131.557 89.4102C131.107 89.6289 130.689 89.8242 130.303 89.9961C129.92 90.1641 129.582 90.3066 129.289 90.4238C128.949 90.5605 128.637 90.6816 128.352 90.7871C128.176 90.8613 127.98 90.9375 127.766 91.0156C127.555 91.0898 127.334 91.1641 127.104 91.2383C126.873 91.3086 126.637 91.3809 126.395 91.4551C126.156 91.5254 125.92 91.5957 125.686 91.666V91.7832C125.686 92.1855 125.748 92.5469 125.873 92.8672C126.002 93.1875 126.18 93.4609 126.406 93.6875C126.633 93.9102 126.904 94.082 127.221 94.2031C127.537 94.3203 127.887 94.3789 128.27 94.3789C128.469 94.3789 128.666 94.3633 128.861 94.332C129.061 94.3008 129.248 94.2598 129.424 94.209C129.604 94.1543 129.771 94.0898 129.928 94.0156C130.084 93.9414 130.223 93.8613 130.344 93.7754C130.047 94.041 129.74 94.2637 129.424 94.4434C129.111 94.623 128.797 94.7695 128.48 94.8828C128.168 94.9922 127.857 95.0723 127.549 95.123C127.244 95.1738 126.951 95.2012 126.67 95.2051C126.385 95.2129 126.104 95.168 125.826 95.0703C125.553 94.9766 125.303 94.832 125.076 94.6367C124.85 94.4414 124.658 94.1992 124.502 93.9102C124.346 93.6172 124.244 93.2773 124.197 92.8906C124.178 92.7539 124.168 92.623 124.168 92.498C124.172 92.3691 124.186 92.2422 124.209 92.1172C124.072 92.168 123.947 92.2148 123.834 92.2578C123.725 92.3008 123.635 92.3438 123.564 92.3867C123.678 92.3086 123.791 92.2363 123.904 92.1699C124.018 92.0996 124.129 92.0352 124.238 91.9766C124.305 91.6719 124.418 91.3809 124.578 91.1035C124.742 90.8262 124.938 90.5684 125.164 90.3301C125.395 90.0918 125.65 89.877 125.932 89.6855C126.213 89.4902 126.504 89.3242 126.805 89.1875C127.109 89.0508 127.418 88.9453 127.73 88.8711C128.043 88.7969 128.346 88.7598 128.639 88.7598C128.834 88.7598 128.998 88.7891 129.131 88.8477C129.268 88.9062 129.359 89.0098 129.406 89.1582C129.43 89.3145 129.373 89.4824 129.236 89.6621C129.178 89.7402 129.098 89.8242 128.996 89.9141C128.898 90 128.77 90.0918 128.609 90.1895C128.453 90.2871 128.264 90.3887 128.041 90.4941C127.822 90.5996 127.562 90.7051 127.262 90.8105L131.557 89.4102ZM126.91 90.834C127.078 90.7598 127.229 90.6797 127.361 90.5938C127.498 90.5078 127.604 90.418 127.678 90.3242C127.756 90.2305 127.797 90.1328 127.801 90.0312C127.805 89.9297 127.764 89.8223 127.678 89.709C127.619 89.623 127.537 89.5645 127.432 89.5332C127.33 89.498 127.225 89.4805 127.115 89.4805C127.014 89.4805 126.916 89.4922 126.822 89.5156C126.729 89.5352 126.646 89.5625 126.576 89.5977C126.529 89.625 126.465 89.6855 126.383 89.7793C126.301 89.8691 126.217 89.9883 126.131 90.1367C126.045 90.2812 125.963 90.4512 125.885 90.6465C125.811 90.8379 125.756 91.0488 125.721 91.2793C125.967 91.1895 126.189 91.1094 126.389 91.0391C126.588 90.9688 126.762 90.9004 126.91 90.834Z" fill="black"/>
<path d="M3.57431 12.1909L15.9561 12.1909L9.76518 22.9138L3.57431 12.1909Z" fill="black"/>
</svg>
